<mxfile host="65bd71144e">
    <diagram id="xy-ta9IeQ3-wk3DHruI5" name="Page-1">
        <mxGraphModel dx="1109" dy="701" grid="1" gridSize="10" guides="1" tooltips="1" connect="1" arrows="1" fold="1" page="1" pageScale="1" pageWidth="850" pageHeight="1100" math="0" shadow="0">
            <root>
                <mxCell id="0"/>
                <mxCell id="1" parent="0"/>
                <mxCell id="67" value="" style="shape=waypoint;sketch=0;fillStyle=solid;size=6;pointerEvents=1;points=[];fillColor=none;resizable=0;rotatable=0;perimeter=centerPerimeter;snapToPoint=1;" vertex="1" parent="1">
                    <mxGeometry x="390" y="150" width="20" height="20" as="geometry"/>
                </mxCell>
                <mxCell id="69" value="" style="shape=waypoint;sketch=0;fillStyle=solid;size=6;pointerEvents=1;points=[];fillColor=none;resizable=0;rotatable=0;perimeter=centerPerimeter;snapToPoint=1;" vertex="1" parent="1">
                    <mxGeometry x="390" y="470" width="20" height="20" as="geometry"/>
                </mxCell>
                <mxCell id="71" value="" style="shape=waypoint;sketch=0;fillStyle=solid;size=6;pointerEvents=1;points=[];fillColor=none;resizable=0;rotatable=0;perimeter=centerPerimeter;snapToPoint=1;" vertex="1" parent="1">
                    <mxGeometry x="270" y="230" width="20" height="20" as="geometry"/>
                </mxCell>
                <mxCell id="72" value="" style="shape=waypoint;sketch=0;fillStyle=solid;size=6;pointerEvents=1;points=[];fillColor=none;resizable=0;rotatable=0;perimeter=centerPerimeter;snapToPoint=1;" vertex="1" parent="1">
                    <mxGeometry x="270" y="390" width="20" height="20" as="geometry"/>
                </mxCell>
                <mxCell id="75" value="" style="shape=waypoint;sketch=0;fillStyle=solid;size=6;pointerEvents=1;points=[];fillColor=none;resizable=0;rotatable=0;perimeter=centerPerimeter;snapToPoint=1;" vertex="1" parent="1">
                    <mxGeometry x="230" y="310" width="20" height="20" as="geometry"/>
                </mxCell>
                <mxCell id="77" value="" style="shape=waypoint;sketch=0;fillStyle=solid;size=6;pointerEvents=1;points=[];fillColor=none;resizable=0;rotatable=0;perimeter=centerPerimeter;snapToPoint=1;" vertex="1" parent="1">
                    <mxGeometry x="310" y="190" width="20" height="20" as="geometry"/>
                </mxCell>
                <mxCell id="78" value="" style="shape=waypoint;sketch=0;fillStyle=solid;size=6;pointerEvents=1;points=[];fillColor=none;resizable=0;rotatable=0;perimeter=centerPerimeter;snapToPoint=1;" vertex="1" parent="1">
                    <mxGeometry x="310" y="430" width="20" height="20" as="geometry"/>
                </mxCell>
                <mxCell id="88" value="A" style="text;html=1;strokeColor=none;fillColor=none;align=center;verticalAlign=middle;whiteSpace=wrap;rounded=0;" vertex="1" parent="1">
                    <mxGeometry x="190" y="305" width="60" height="30" as="geometry"/>
                </mxCell>
                <mxCell id="89" value="B" style="text;html=1;strokeColor=none;fillColor=none;align=center;verticalAlign=middle;whiteSpace=wrap;rounded=0;" vertex="1" parent="1">
                    <mxGeometry x="250" y="210" width="60" height="30" as="geometry"/>
                </mxCell>
                <mxCell id="90" value="C" style="text;html=1;strokeColor=none;fillColor=none;align=center;verticalAlign=middle;whiteSpace=wrap;rounded=0;" vertex="1" parent="1">
                    <mxGeometry x="290" y="170" width="60" height="30" as="geometry"/>
                </mxCell>
                <mxCell id="91" value="D" style="text;html=1;strokeColor=none;fillColor=none;align=center;verticalAlign=middle;whiteSpace=wrap;rounded=0;" vertex="1" parent="1">
                    <mxGeometry x="370" y="130" width="60" height="30" as="geometry"/>
                </mxCell>
                <mxCell id="99" value="L" style="text;html=1;strokeColor=none;fillColor=none;align=center;verticalAlign=middle;whiteSpace=wrap;rounded=0;" vertex="1" parent="1">
                    <mxGeometry x="370" y="480" width="60" height="30" as="geometry"/>
                </mxCell>
                <mxCell id="100" value="M" style="text;html=1;strokeColor=none;fillColor=none;align=center;verticalAlign=middle;whiteSpace=wrap;rounded=0;" vertex="1" parent="1">
                    <mxGeometry x="290" y="440" width="60" height="30" as="geometry"/>
                </mxCell>
                <mxCell id="101" value="N" style="text;html=1;strokeColor=none;fillColor=none;align=center;verticalAlign=middle;whiteSpace=wrap;rounded=0;" vertex="1" parent="1">
                    <mxGeometry x="250" y="400" width="60" height="30" as="geometry"/>
                </mxCell>
                <mxCell id="79" value="" style="shape=waypoint;sketch=0;fillStyle=solid;size=6;pointerEvents=1;points=[];fillColor=none;resizable=0;rotatable=0;perimeter=centerPerimeter;snapToPoint=1;rotation=-180;" vertex="1" parent="1">
                    <mxGeometry x="470" y="470" width="20" height="20" as="geometry"/>
                </mxCell>
                <mxCell id="80" value="" style="shape=waypoint;sketch=0;fillStyle=solid;size=6;pointerEvents=1;points=[];fillColor=none;resizable=0;rotatable=0;perimeter=centerPerimeter;snapToPoint=1;rotation=-180;" vertex="1" parent="1">
                    <mxGeometry x="470" y="150" width="20" height="20" as="geometry"/>
                </mxCell>
                <mxCell id="81" value="" style="shape=waypoint;sketch=0;fillStyle=solid;size=6;pointerEvents=1;points=[];fillColor=none;resizable=0;rotatable=0;perimeter=centerPerimeter;snapToPoint=1;rotation=-180;" vertex="1" parent="1">
                    <mxGeometry x="590" y="390" width="20" height="20" as="geometry"/>
                </mxCell>
                <mxCell id="82" value="" style="shape=waypoint;sketch=0;fillStyle=solid;size=6;pointerEvents=1;points=[];fillColor=none;resizable=0;rotatable=0;perimeter=centerPerimeter;snapToPoint=1;rotation=-180;" vertex="1" parent="1">
                    <mxGeometry x="590" y="230" width="20" height="20" as="geometry"/>
                </mxCell>
                <mxCell id="83" value="" style="shape=waypoint;sketch=0;fillStyle=solid;size=6;pointerEvents=1;points=[];fillColor=none;resizable=0;rotatable=0;perimeter=centerPerimeter;snapToPoint=1;rotation=-180;" vertex="1" parent="1">
                    <mxGeometry x="630" y="310" width="20" height="20" as="geometry"/>
                </mxCell>
                <mxCell id="84" value="" style="shape=waypoint;sketch=0;fillStyle=solid;size=6;pointerEvents=1;points=[];fillColor=none;resizable=0;rotatable=0;perimeter=centerPerimeter;snapToPoint=1;rotation=-180;" vertex="1" parent="1">
                    <mxGeometry x="550" y="430" width="20" height="20" as="geometry"/>
                </mxCell>
                <mxCell id="85" value="" style="shape=waypoint;sketch=0;fillStyle=solid;size=6;pointerEvents=1;points=[];fillColor=none;resizable=0;rotatable=0;perimeter=centerPerimeter;snapToPoint=1;rotation=-180;" vertex="1" parent="1">
                    <mxGeometry x="550" y="190" width="20" height="20" as="geometry"/>
                </mxCell>
                <mxCell id="92" value="E" style="text;html=1;strokeColor=none;fillColor=none;align=center;verticalAlign=middle;whiteSpace=wrap;rounded=0;" vertex="1" parent="1">
                    <mxGeometry x="450" y="130" width="60" height="30" as="geometry"/>
                </mxCell>
                <mxCell id="93" value="F" style="text;html=1;strokeColor=none;fillColor=none;align=center;verticalAlign=middle;whiteSpace=wrap;rounded=0;" vertex="1" parent="1">
                    <mxGeometry x="530" y="170" width="60" height="30" as="geometry"/>
                </mxCell>
                <mxCell id="94" value="G" style="text;html=1;strokeColor=none;fillColor=none;align=center;verticalAlign=middle;whiteSpace=wrap;rounded=0;" vertex="1" parent="1">
                    <mxGeometry x="570" y="210" width="60" height="30" as="geometry"/>
                </mxCell>
                <mxCell id="95" value="H" style="text;html=1;strokeColor=none;fillColor=none;align=center;verticalAlign=middle;whiteSpace=wrap;rounded=0;" vertex="1" parent="1">
                    <mxGeometry x="630" y="305" width="60" height="30" as="geometry"/>
                </mxCell>
                <mxCell id="96" value="I" style="text;html=1;strokeColor=none;fillColor=none;align=center;verticalAlign=middle;whiteSpace=wrap;rounded=0;" vertex="1" parent="1">
                    <mxGeometry x="570" y="400" width="60" height="30" as="geometry"/>
                </mxCell>
                <mxCell id="97" value="J" style="text;html=1;strokeColor=none;fillColor=none;align=center;verticalAlign=middle;whiteSpace=wrap;rounded=0;" vertex="1" parent="1">
                    <mxGeometry x="530" y="440" width="60" height="30" as="geometry"/>
                </mxCell>
                <mxCell id="98" value="K" style="text;html=1;strokeColor=none;fillColor=none;align=center;verticalAlign=middle;whiteSpace=wrap;rounded=0;" vertex="1" parent="1">
                    <mxGeometry x="450" y="480" width="60" height="30" as="geometry"/>
                </mxCell>
            </root>
        </mxGraphModel>
    </diagram>
</mxfile>